<mxfile host="app.diagrams.net" modified="2023-12-13T05:46:17.452Z" agent="Mozilla/5.0 (Windows NT 10.0; Win64; x64) AppleWebKit/537.36 (KHTML, like Gecko) Chrome/120.0.0.0 Safari/537.36" etag="yYwG0UL2zJx8MqCo-Twt" version="22.1.8" type="device">
  <diagram name="第 1 页" id="eapUkpGZqJNJGV0I8Z7t">
    <mxGraphModel dx="1381" dy="577" grid="1" gridSize="10" guides="1" tooltips="1" connect="1" arrows="1" fold="1" page="1" pageScale="1" pageWidth="827" pageHeight="1169" math="0" shadow="0">
      <root>
        <mxCell id="0" />
        <mxCell id="1" parent="0" />
        <mxCell id="bkKACzYfvtrz4emuRBIs-1" value="Passenger" style="swimlane;childLayout=stackLayout;horizontal=1;startSize=50;horizontalStack=0;rounded=1;fontSize=14;fontStyle=0;strokeWidth=2;resizeParent=0;resizeLast=1;shadow=0;dashed=0;align=center;arcSize=4;whiteSpace=wrap;html=1;" parent="1" vertex="1">
          <mxGeometry x="-150" y="460" width="160" height="120" as="geometry" />
        </mxCell>
        <mxCell id="bkKACzYfvtrz4emuRBIs-2" value="FirstName(string)&lt;br&gt;Lastname(string)" style="align=left;strokeColor=none;fillColor=none;spacingLeft=4;fontSize=12;verticalAlign=top;resizable=0;rotatable=0;part=1;html=1;" parent="bkKACzYfvtrz4emuRBIs-1" vertex="1">
          <mxGeometry y="50" width="160" height="70" as="geometry" />
        </mxCell>
        <mxCell id="bkKACzYfvtrz4emuRBIs-3" value="Flight" style="swimlane;childLayout=stackLayout;horizontal=1;startSize=50;horizontalStack=0;rounded=1;fontSize=14;fontStyle=0;strokeWidth=2;resizeParent=0;resizeLast=1;shadow=0;dashed=0;align=center;arcSize=4;whiteSpace=wrap;html=1;" parent="1" vertex="1">
          <mxGeometry x="300" y="460" width="180" height="160" as="geometry" />
        </mxCell>
        <mxCell id="bkKACzYfvtrz4emuRBIs-4" value="Number(string)&lt;br&gt;DepartureDateTime(datetime)&lt;br&gt;ArrivalDateTime(datetime)&lt;br&gt;Durationminutes(integer)&lt;br&gt;DistanceInmiles(integer)&lt;br&gt;DepartureAirportld(integer)&lt;br&gt;ArrivalAirportld(integer)" style="align=left;strokeColor=none;fillColor=none;spacingLeft=4;fontSize=12;verticalAlign=top;resizable=0;rotatable=0;part=1;html=1;" parent="bkKACzYfvtrz4emuRBIs-3" vertex="1">
          <mxGeometry y="50" width="180" height="110" as="geometry" />
        </mxCell>
        <mxCell id="bkKACzYfvtrz4emuRBIs-7" value="Airport" style="swimlane;childLayout=stackLayout;horizontal=1;startSize=50;horizontalStack=0;rounded=1;fontSize=14;fontStyle=0;strokeWidth=2;resizeParent=0;resizeLast=1;shadow=0;dashed=0;align=center;arcSize=4;whiteSpace=wrap;html=1;" parent="1" vertex="1">
          <mxGeometry x="60" y="690" width="160" height="120" as="geometry" />
        </mxCell>
        <mxCell id="bkKACzYfvtrz4emuRBIs-8" value="IATAcode(string)&lt;br&gt;Name(string)&lt;br&gt;City(string)&lt;br&gt;State(string)" style="align=left;strokeColor=none;fillColor=none;spacingLeft=4;fontSize=12;verticalAlign=top;resizable=0;rotatable=0;part=1;html=1;" parent="bkKACzYfvtrz4emuRBIs-7" vertex="1">
          <mxGeometry y="50" width="160" height="70" as="geometry" />
        </mxCell>
        <mxCell id="bkKACzYfvtrz4emuRBIs-10" value="" style="edgeStyle=entityRelationEdgeStyle;fontSize=12;html=1;endArrow=ERmany;startArrow=ERmany;rounded=0;exitX=1;exitY=0;exitDx=0;exitDy=0;entryX=0;entryY=0;entryDx=0;entryDy=0;" parent="1" source="bkKACzYfvtrz4emuRBIs-8" target="bkKACzYfvtrz4emuRBIs-4" edge="1">
          <mxGeometry width="100" height="100" relative="1" as="geometry">
            <mxPoint x="200" y="650" as="sourcePoint" />
            <mxPoint x="330" y="750" as="targetPoint" />
            <Array as="points">
              <mxPoint x="290" y="600" />
              <mxPoint x="280" y="670" />
              <mxPoint x="300" y="630" />
              <mxPoint x="300" y="500" />
            </Array>
          </mxGeometry>
        </mxCell>
        <mxCell id="bkKACzYfvtrz4emuRBIs-11" value="Departs/Arriveat" style="edgeLabel;html=1;align=center;verticalAlign=middle;resizable=0;points=[];" parent="bkKACzYfvtrz4emuRBIs-10" vertex="1" connectable="0">
          <mxGeometry x="0.1096" y="1" relative="1" as="geometry">
            <mxPoint x="-20" as="offset" />
          </mxGeometry>
        </mxCell>
        <mxCell id="bkKACzYfvtrz4emuRBIs-12" value="Ticker" style="swimlane;childLayout=stackLayout;horizontal=1;startSize=50;horizontalStack=0;rounded=1;fontSize=14;fontStyle=0;strokeWidth=2;resizeParent=0;resizeLast=1;shadow=0;dashed=0;align=center;arcSize=4;whiteSpace=wrap;html=1;" parent="1" vertex="1">
          <mxGeometry x="70" y="320" width="160" height="120" as="geometry" />
        </mxCell>
        <mxCell id="bkKACzYfvtrz4emuRBIs-13" value="TicketNumber(string)&lt;br&gt;Price(float)&lt;br&gt;ConfirmationNumber(string)" style="align=left;strokeColor=none;fillColor=none;spacingLeft=4;fontSize=12;verticalAlign=top;resizable=0;rotatable=0;part=1;html=1;" parent="bkKACzYfvtrz4emuRBIs-12" vertex="1">
          <mxGeometry y="50" width="160" height="70" as="geometry" />
        </mxCell>
        <mxCell id="bkKACzYfvtrz4emuRBIs-14" value="" style="edgeStyle=entityRelationEdgeStyle;fontSize=12;html=1;endArrow=ERmany;startArrow=ERone;rounded=0;entryX=0;entryY=0;entryDx=0;entryDy=0;startFill=0;" parent="1" target="bkKACzYfvtrz4emuRBIs-13" edge="1">
          <mxGeometry width="100" height="100" relative="1" as="geometry">
            <mxPoint x="10" y="510" as="sourcePoint" />
            <mxPoint x="110" y="410" as="targetPoint" />
          </mxGeometry>
        </mxCell>
        <mxCell id="bkKACzYfvtrz4emuRBIs-17" value="purchases" style="edgeLabel;html=1;align=center;verticalAlign=middle;resizable=0;points=[];" parent="bkKACzYfvtrz4emuRBIs-14" vertex="1" connectable="0">
          <mxGeometry x="0.09" y="-1" relative="1" as="geometry">
            <mxPoint as="offset" />
          </mxGeometry>
        </mxCell>
        <mxCell id="bkKACzYfvtrz4emuRBIs-15" value="" style="edgeStyle=entityRelationEdgeStyle;fontSize=12;html=1;endArrow=ERone;startArrow=ERmany;rounded=0;entryX=-0.012;entryY=0.175;entryDx=0;entryDy=0;entryPerimeter=0;endFill=0;" parent="1" target="bkKACzYfvtrz4emuRBIs-3" edge="1">
          <mxGeometry width="100" height="100" relative="1" as="geometry">
            <mxPoint x="230" y="370" as="sourcePoint" />
            <mxPoint x="330" y="270" as="targetPoint" />
          </mxGeometry>
        </mxCell>
        <mxCell id="bkKACzYfvtrz4emuRBIs-18" value="issued for" style="edgeLabel;html=1;align=center;verticalAlign=middle;resizable=0;points=[];" parent="bkKACzYfvtrz4emuRBIs-15" vertex="1" connectable="0">
          <mxGeometry x="-0.1927" y="-4" relative="1" as="geometry">
            <mxPoint as="offset" />
          </mxGeometry>
        </mxCell>
        <mxCell id="bkKACzYfvtrz4emuRBIs-20" value="Airline" style="swimlane;childLayout=stackLayout;horizontal=1;startSize=50;horizontalStack=0;rounded=1;fontSize=14;fontStyle=0;strokeWidth=2;resizeParent=0;resizeLast=1;shadow=0;dashed=0;align=center;arcSize=4;whiteSpace=wrap;html=1;" parent="1" vertex="1">
          <mxGeometry x="310" y="710" width="160" height="120" as="geometry" />
        </mxCell>
        <mxCell id="bkKACzYfvtrz4emuRBIs-21" value="name(string)" style="align=left;strokeColor=none;fillColor=none;spacingLeft=4;fontSize=12;verticalAlign=top;resizable=0;rotatable=0;part=1;html=1;" parent="bkKACzYfvtrz4emuRBIs-20" vertex="1">
          <mxGeometry y="50" width="160" height="70" as="geometry" />
        </mxCell>
        <mxCell id="bkKACzYfvtrz4emuRBIs-22" value="" style="edgeStyle=entityRelationEdgeStyle;fontSize=12;html=1;endArrow=ERmany;rounded=0;exitX=1;exitY=0;exitDx=0;exitDy=0;" parent="1" source="bkKACzYfvtrz4emuRBIs-21" target="bkKACzYfvtrz4emuRBIs-4" edge="1">
          <mxGeometry width="100" height="100" relative="1" as="geometry">
            <mxPoint x="360" y="850" as="sourcePoint" />
            <mxPoint x="460" y="750" as="targetPoint" />
          </mxGeometry>
        </mxCell>
        <mxCell id="bkKACzYfvtrz4emuRBIs-23" value="FlightClass" style="swimlane;childLayout=stackLayout;horizontal=1;startSize=50;horizontalStack=0;rounded=1;fontSize=14;fontStyle=0;strokeWidth=2;resizeParent=0;resizeLast=1;shadow=0;dashed=0;align=center;arcSize=4;whiteSpace=wrap;html=1;" parent="1" vertex="1">
          <mxGeometry x="-150" y="110" width="160" height="120" as="geometry" />
        </mxCell>
        <mxCell id="bkKACzYfvtrz4emuRBIs-24" value="Name(string)" style="align=left;strokeColor=none;fillColor=none;spacingLeft=4;fontSize=12;verticalAlign=top;resizable=0;rotatable=0;part=1;html=1;" parent="bkKACzYfvtrz4emuRBIs-23" vertex="1">
          <mxGeometry y="50" width="160" height="70" as="geometry" />
        </mxCell>
        <mxCell id="bkKACzYfvtrz4emuRBIs-26" value="" style="edgeStyle=entityRelationEdgeStyle;fontSize=12;html=1;endArrow=ERoneToMany;rounded=0;entryX=0;entryY=0;entryDx=0;entryDy=0;" parent="1" target="bkKACzYfvtrz4emuRBIs-12" edge="1">
          <mxGeometry width="100" height="100" relative="1" as="geometry">
            <mxPoint x="10" y="160" as="sourcePoint" />
            <mxPoint x="110" y="60" as="targetPoint" />
            <Array as="points">
              <mxPoint x="60" y="340" />
            </Array>
          </mxGeometry>
        </mxCell>
      </root>
    </mxGraphModel>
  </diagram>
</mxfile>
